<svg width="36" height="36" viewBox="0 0 36 36" fill="none" xmlns="http://www.w3.org/2000/svg">
<path d="M13.5 4.5H22.5V6H30V9H28.5V15.45C28.075 15.325 27.5815 15.2185 27.0195 15.1305C26.4575 15.0425 25.951 14.999 25.5 15C25.049 15.001 24.543 15.0385 23.982 15.1125C23.421 15.1865 22.927 15.2865 22.5 15.4125V12H19.5V16.875C18.95 17.275 18.4 17.7685 17.85 18.3555C17.3 18.9425 16.85 19.524 16.5 20.1V12H13.5V25.5H15C15 26.475 15.175 27.519 15.525 28.632C15.875 29.745 16.325 30.701 16.875 31.5H10.5C9.675 31.5 8.969 31.2065 8.382 30.6195C7.795 30.0325 7.501 29.326 7.5 28.5V9H6V6H13.5V4.5ZM25.5 18C27.575 18 29.344 18.7315 30.807 20.1945C32.27 21.6575 33.001 23.426 33 25.5C32.999 27.574 32.2675 29.343 30.8055 30.807C29.3435 32.271 27.575 33.002 25.5 33C23.425 32.998 21.6565 32.2665 20.1945 30.8055C18.7325 29.3445 18.001 27.576 18 25.5C17.999 23.424 18.7305 21.6555 20.1945 20.1945C21.6585 18.7335 23.427 18.002 25.5 18ZM24.75 21V25.8L27.975 29.025L29.025 27.975L26.25 25.2V21H24.75Z" fill="#F01E2C"/>
</svg>
